<mxfile host="app.diagrams.net" modified="2020-08-24T13:42:06.543Z" agent="5.0 (Windows)" etag="5fGG9DwKgi56WWhHzfRh" version="13.6.4" type="github">
  <diagram id="C5RBs43oDa-KdzZeNtuy" name="Page-1">
    <mxGraphModel dx="862" dy="461" grid="1" gridSize="10" guides="1" tooltips="1" connect="1" arrows="1" fold="1" page="1" pageScale="1" pageWidth="827" pageHeight="1169" background="#FFFFFF" math="0" shadow="0">
      <root>
        <mxCell id="WIyWlLk6GJQsqaUBKTNV-0" />
        <mxCell id="WIyWlLk6GJQsqaUBKTNV-1" parent="WIyWlLk6GJQsqaUBKTNV-0" />
        <mxCell id="2b1jSWqO3XOjAtLOjISE-2" value="" style="edgeStyle=orthogonalEdgeStyle;rounded=0;orthogonalLoop=1;jettySize=auto;html=1;" edge="1" parent="WIyWlLk6GJQsqaUBKTNV-1" source="WIyWlLk6GJQsqaUBKTNV-3" target="2b1jSWqO3XOjAtLOjISE-0">
          <mxGeometry relative="1" as="geometry" />
        </mxCell>
        <mxCell id="WIyWlLk6GJQsqaUBKTNV-3" value="Pobranie danych wejściowych" style="rounded=1;whiteSpace=wrap;html=1;fontSize=12;glass=0;strokeWidth=1;shadow=1;arcSize=0;" parent="WIyWlLk6GJQsqaUBKTNV-1" vertex="1">
          <mxGeometry x="320" y="60" width="120" height="60" as="geometry" />
        </mxCell>
        <mxCell id="2b1jSWqO3XOjAtLOjISE-4" value="" style="edgeStyle=orthogonalEdgeStyle;rounded=0;orthogonalLoop=1;jettySize=auto;html=1;" edge="1" parent="WIyWlLk6GJQsqaUBKTNV-1" source="2b1jSWqO3XOjAtLOjISE-0" target="2b1jSWqO3XOjAtLOjISE-3">
          <mxGeometry relative="1" as="geometry" />
        </mxCell>
        <mxCell id="2b1jSWqO3XOjAtLOjISE-0" value="&lt;div&gt;projekcje &lt;br&gt;&lt;/div&gt;&lt;div&gt;&lt;span lang=&quot;grc&quot;&gt;Ψ=0, 1, ... ,&lt;/span&gt;&lt;span lang=&quot;grc&quot;&gt;Ψ-1&lt;/span&gt;&lt;/div&gt;" style="rounded=1;whiteSpace=wrap;html=1;arcSize=0;shadow=1;" vertex="1" parent="WIyWlLk6GJQsqaUBKTNV-1">
          <mxGeometry x="320" y="160" width="120" height="60" as="geometry" />
        </mxCell>
        <mxCell id="2b1jSWqO3XOjAtLOjISE-8" value="" style="edgeStyle=orthogonalEdgeStyle;rounded=0;orthogonalLoop=1;jettySize=auto;html=1;" edge="1" parent="WIyWlLk6GJQsqaUBKTNV-1" source="2b1jSWqO3XOjAtLOjISE-3" target="2b1jSWqO3XOjAtLOjISE-7">
          <mxGeometry relative="1" as="geometry" />
        </mxCell>
        <mxCell id="2b1jSWqO3XOjAtLOjISE-3" value="przeliczenie projekcji na punkty" style="rounded=0;whiteSpace=wrap;html=1;shadow=1;" vertex="1" parent="WIyWlLk6GJQsqaUBKTNV-1">
          <mxGeometry x="320" y="260" width="120" height="60" as="geometry" />
        </mxCell>
        <mxCell id="2b1jSWqO3XOjAtLOjISE-10" value="" style="edgeStyle=orthogonalEdgeStyle;rounded=0;orthogonalLoop=1;jettySize=auto;html=1;" edge="1" parent="WIyWlLk6GJQsqaUBKTNV-1" source="2b1jSWqO3XOjAtLOjISE-7" target="2b1jSWqO3XOjAtLOjISE-9">
          <mxGeometry relative="1" as="geometry" />
        </mxCell>
        <mxCell id="2b1jSWqO3XOjAtLOjISE-7" value="Transformata Fouriera" style="rounded=0;whiteSpace=wrap;html=1;shadow=1;" vertex="1" parent="WIyWlLk6GJQsqaUBKTNV-1">
          <mxGeometry x="320" y="360" width="120" height="60" as="geometry" />
        </mxCell>
        <mxCell id="2b1jSWqO3XOjAtLOjISE-9" value="Filtracja" style="rounded=0;whiteSpace=wrap;html=1;shadow=1;" vertex="1" parent="WIyWlLk6GJQsqaUBKTNV-1">
          <mxGeometry x="320" y="470" width="120" height="60" as="geometry" />
        </mxCell>
        <mxCell id="2b1jSWqO3XOjAtLOjISE-11" value="" style="rounded=0;whiteSpace=wrap;html=1;shadow=1;" vertex="1" parent="WIyWlLk6GJQsqaUBKTNV-1">
          <mxGeometry x="470" y="470" width="120" height="60" as="geometry" />
        </mxCell>
      </root>
    </mxGraphModel>
  </diagram>
</mxfile>
